<?xml version="1.0" encoding="UTF-8"?>
<!DOCTYPE svg PUBLIC "-//W3C//DTD SVG 1.1//EN" "http://www.w3.org/Graphics/SVG/1.1/DTD/svg11.dtd">
<?xml-stylesheet type="text/css" href="untitled.css"?> 
<svg xmlns="http://www.w3.org/2000/svg" xmlns:xlink="http://www.w3.org/1999/xlink" width="100%">
	<defs>		
		
		<g class="times" id="TIMES">
			<g transform="translate(0,140)">
				
				<text x="0" y="30" font-size="48">
					00:00
					<tspan x="0" y="130">02:00</tspan>
					<tspan x="0" y="250">04:00</tspan>
					<tspan x="0" y="370">06:00</tspan>
					<tspan x="0" y="490">08:00</tspan>
					<tspan x="0" y="610">10:00</tspan>
					<tspan x="0" y="730">12:00</tspan>
					<tspan x="0" y="850">14:00</tspan>
					<tspan x="0" y="970">16:00</tspan>
					<tspan x="0" y="1090">18:00</tspan>
					<tspan x="0" y="1210">20:00</tspan>
					<tspan x="0" y="1330">22:00</tspan>
				</text>
			</g>
		</g>
	
		<rect id="overlayX" width="500" height="130"
			style="fill:#6D6083">
		</rect>
		<g  class="days" id="T2015-04-20" >
			<use xlink:href="#overlayX" transform="scale(1,12)" />
			<text id="calendarDay" x="170" y="80" font-size="100" fill="#ffd500" fill-opacity="0.8" >Mon</text>
			<text id="calendarDate" x="170" y="120" font-size="40"  fill="#ffd500" fill-opacity="0.8">2015-04-20</text>
			<g transform="translate(15,120)" >
				<g transform="translate(0,480)">
					<use xlink:href="Tasks.svg#T2015-4-20_0810" transform="scale(0.95,1.2)" />
				</g>
				<g transform="translate(0,840)" > 
					<use xlink:href="Tasks.svg#T2015-04-20_1416" transform="scale(0.95,1.2)" />
				</g>
			</g>

		</g>

		<g id="T2015-04-21">
			<use xlink:href="#overlayX" transform="translate(0,0) scale(1,12)" />
			<text x="170" y="80" font-size="100" fill="#ffd500" fill-opacity="0.8" >Tue</text>
			<text x="170" y="120" font-size="40"  fill="#ffd500" fill-opacity="0.8">2015-04-21</text>
			<g transform="translate(15,120)">
				<g transform="translate(0,480)"> 
					<use xlink:href="Tasks.svg#T2015-04-21_0811" transform="scale(0.95,1.80)" />
				</g>
				<g transform="translate(0,720)">
					<use xlink:href="Tasks.svg#T2015-4-21_1214" transform="scale(0.95,1.2) " />
				</g>
				<g transform="translate(0,960)"> 
					<use xlink:href="Tasks.svg#T2015-04-21_1618" transform="scale(0.95,1.2) " />
				</g>
			</g>
		</g>


		<g id="T2015-04-22">
			<use xlink:href="#overlayX" transform="translate(0,0) scale(1,12)" />
			<text  x="170" y="80" font-size="100" fill="#ffd500" fill-opacity="0.8" >Wed</text>
			<text  x="170" y="120" font-size="40"  fill="#ffd500" fill-opacity="0.8">2015-04-22</text>
			<g transform="translate(15,120)" >
				<g transform="translate(0,1200)">
					<use xlink:href="Tasks.svg#T2015-4-22_2022" transform="scale(0.95,1.2)" />
				</g>
			</g>
		</g>


		<g id="T2015-04-23">
			<use xlink:href="#overlayX" transform="translate(0,0) scale(1,12)" />
			<text  x="170" y="80" font-size="100" fill="#ffd500" fill-opacity="0.8" >Thu</text>
			<text  x="170" y="120" font-size="40"  fill="#ffd500" fill-opacity="0.8">2015-04-22</text>
			<g transform="translate(15,120)" >
				<g transform="translate(0,600)">
					<use xlink:href="Tasks.svg#T2015-4-23_1012" transform="scale(0.95,1.2)" />
				</g>
			</g>
		</g>


		<g id="T2015-04-24">
			<use xlink:href="#overlayX" transform="translate(0,0) scale(1,12)" />
			<text  x="170" y="80" font-size="100" fill="#ffd500" fill-opacity="0.8" >Fri</text>
			<text  x="170" y="120" font-size="40"  fill="#ffd500" fill-opacity="0.8">2015-04-23</text>
			<g transform="translate(15,120)" >
				<g transform="translate(0,1080)">
					<use xlink:href="Tasks.svg#T2015-4-24_1820" transform="scale(0.95,1.2)" />
				</g>			
			</g>
		</g>



		<g id="T2015-04-25">
			<use xlink:href="#overlayX" transform="translate(0,0) scale(1,12)" />
			<text  x="170" y="80" font-size="100" fill="#ffd500" fill-opacity="0.8" >Sat</text>
			<text  x="170" y="120" font-size="40"  fill="#ffd500" fill-opacity="0.8">2015-04-24</text>
			<g transform="translate(15,120)" >
				<g transform="translate(0,780)">
					<use xlink:href="Tasks.svg#T2015-4-25_1315" transform="scale(0.95,1.2)" />
				</g>
			</g>		</g>



		<g id="T2015-04-26">
			<use xlink:href="#overlayX" transform="translate(0,0) scale(1,12)" />
			<text  x="170" y="80" font-size="100" fill="#ffd500" fill-opacity="0.8" >Sun</text>
			<text  x="170" y="120" font-size="40"  fill="#ffd500" fill-opacity="0.8">2015-04-25</text>
			<g transform="translate(15,120)" >
				<g transform="translate(0,1080)">
					<use xlink:href="Tasks.svg#T2015-4-26_1820" transform="scale(0.95,1.2)" />
				</g>
			</g>
		</g>

		<g id="T2015-04-27">
			<use xlink:href="#overlayX" transform="translate(0,0) scale(1,12)" />
			<text  x="170" y="80" font-size="100" fill="#ffd500" fill-opacity="0.8" >Mon</text>
			<text  x="170" y="120" font-size="40"  fill="#ffd500" fill-opacity="0.8">2015-04-26</text>
			<g transform="translate(15,120)" >
				<g transform="translate(0,600)">
					<use xlink:href="Tasks.svg#T2015-4-27_1012" transform="scale(0.95,1.2)" />
				</g>
			</g>
		</g>


		<g id="T2015-04-28">
			<use xlink:href="#overlayX" transform="translate(0,0) scale(1,12)" />
			<text  x="170" y="80" font-size="100" fill="#ffd500" fill-opacity="0.8" >Tue</text>
			<text  x="170" y="120" font-size="40"  fill="#ffd500" fill-opacity="0.8">2015-04-27</text>
			<g transform="translate(15,120)" >
				<g transform="translate(0,480)">
					<use xlink:href="Tasks.svg#T2015-4-28_0810" transform="scale(0.95,1.2)" />
				</g>
			</g>
		</g>


		<g id="T2015-04-29">
			<use xlink:href="#overlayX" transform="translate(0,0) scale(1,12)" />
			<text  x="170" y="80" font-size="100" fill="#ffd500" fill-opacity="0.8" >Wed</text>
			<text  x="170" y="120" font-size="40"  fill="#ffd500" fill-opacity="0.8">2015-04-28</text>
			<g transform="translate(15,120)" >
				<g transform="translate(0,0)">
					<use xlink:href="Tasks.svg#T2015-4-29_0002" transform="scale(0.95,1.2)" />
				</g>
			</g>
		</g>



		<g id="T2015-04-30">
			<use xlink:href="#overlayX" transform="translate(0,0) scale(1,12)" />
			<text  x="170" y="80" font-size="100" fill="#ffd500" fill-opacity="0.8" >Thu</text>
			<text  x="170" y="120" font-size="40"  fill="#ffd500" fill-opacity="0.8">2015-04-29</text>
			<g transform="translate(15,120)" >
				<g transform="translate(0,840)">
					<use xlink:href="Tasks.svg#T2015-4-30_1416" transform="scale(0.95,1.2)" />
				</g>
			</g>
		</g>


		<g id="T2015-05-01">
			<use xlink:href="#overlayX" transform="translate(0,0) scale(1,12)" />
			<text  x="170" y="80" font-size="100" fill="#ffd500" fill-opacity="0.8" >Fri</text>
			<text  x="170" y="120" font-size="40"  fill="#ffd500" fill-opacity="0.8">2015-04-30</text>
			<g transform="translate(15,120)" >
				<g transform="translate(0,960)">
					<use xlink:href="Tasks.svg#T2015-5-1_1620" transform="scale(0.95,1.2)" />
				</g>
			</g>
		</g>


		<g id="T2015-05-02">
			<use xlink:href="#overlayX" transform="translate(0,0) scale(1,12)" />
			<text  x="170" y="80" font-size="100" fill="#ffd500" fill-opacity="0.8" >Sat</text>
			<text  x="170" y="120" font-size="40"  fill="#ffd500" fill-opacity="0.8">2015-05-01</text>
			<g transform="translate(15,120)" >
				<g transform="translate(0,840)">
					<use xlink:href="Tasks.svg#T2015-5-2_1416" transform="scale(0.95,1.2)" />
				</g>
			</g>
		</g>


		<g id="T2015-05-03">
			<use xlink:href="#overlayX" transform="translate(0,0) scale(1,12)" />
			<text  x="170" y="80" font-size="100" fill="#ffd500" fill-opacity="0.8" >Sun</text>
			<text  x="170" y="120" font-size="40"  fill="#ffd500" fill-opacity="0.8">2015-05-02</text>
			<g transform="translate(15,120)" >
				<g transform="translate(0,1200)">
					<use xlink:href="Tasks.svg#T2015-5-3_2022" transform="scale(0.95,1.2)" />
				</g>
			</g>
		</g>


	</defs>


	<g transform="scale(0.4,0.4)">
		<use xlink:href="#TIMES" />
	
		<use xlink:href="#T2015-04-20" transform="translate(120,0)"  />
	</g>


</svg>

